<?xml version="1.0" encoding="utf-8"?>
<!-- Generator: Adobe Illustrator 26.2.1, SVG Export Plug-In . SVG Version: 6.00 Build 0)  -->
<svg version="1.1" id="Layer_1" xmlns="http://www.w3.org/2000/svg" xmlns:xlink="http://www.w3.org/1999/xlink" x="0px" y="0px"
	 viewBox="0 0 800 800" style="enable-background:new 0 0 800 800; fill: #353535; " xml:space="preserve">
<g>
	<path d="M337.4,309c0,44.1,0,87.9,0,132c-1.2-0.3-2.1-0.5-3.1-0.8c-13.9-4.3-28.1-5.7-42.6-4.7c-44,3.1-82.8,30.8-100.1,71.4
		c-7.2,16.9-10.3,34.5-9.3,52.8c2.9,52.9,41.9,98.1,93.8,108.7c61.4,12.6,121.4-24,138.2-84.1c2.8-9.9,4.2-20.1,4.2-30.4
		c0-41.4,0.1-82.8,0.1-124.1c0-141.1,0-282.2,0.1-423.3c0-1.3,0-2.5,0-3.7c2.2-0.6,126.9-0.8,130.2-0.2
		c1.5,54.8,20.9,102.3,60.1,140.9c39.1,38.7,86.8,57.6,141.9,58.5c0,43.1,0,86.2,0,129.6c-74.6-0.6-141.5-23.4-201.5-68.4
		c-0.1,1.2-0.1,2.2-0.1,3.1c0,25.6,0.1,51.3,0.1,76.9c0.2,69.8,0.3,139.5,0.5,209.3c0.2,94.1-52.1,173.7-127.2,215.8
		c-26.1,14.6-54.1,24.1-83.7,28.7c-18.1,2.8-36.3,3.6-54.5,2.5C176,793,92.5,719.9,62.9,631.3c-5.9-17.5-9.7-35.4-11.5-53.8
		c-9.8-99.7,40.6-190.4,123.3-238.2c26.7-15.4,55.3-25.4,85.7-30.1c20.9-3.3,41.9-3.9,63-1.9c3.8,0.4,7.6,0.8,11.5,1.3
		C335.6,308.7,336.4,308.9,337.4,309z"/>
</g>
</svg>
